<svg width="20" height="20" viewBox="0 0 20 20" fill="none" xmlns="http://www.w3.org/2000/svg">
<path d="M16.5539 4.22863L16.1398 4.50886V4.50886L16.5539 4.22863ZM16.5539 12.5843L16.968 12.8645L16.968 12.8645L16.5539 12.5843ZM15.6598 13.4672L15.3844 13.0498L15.6598 13.4672ZM12.2387 14.0054L12.2366 13.5054C11.9613 13.5066 11.7387 13.7301 11.7387 14.0054H12.2387ZM12.2387 14.0065L12.6848 14.2323C12.7203 14.1623 12.7387 14.0849 12.7387 14.0065H12.2387ZM11.5104 15.4447L11.9565 15.6706L11.5104 15.4447ZM9.72616 15.4447L9.28009 15.6706L9.72616 15.4447ZM8.99784 14.0065H8.49784C8.49784 14.0849 8.51631 14.1623 8.55177 14.2323L8.99784 14.0065ZM8.99784 14.0054H9.49784C9.49784 13.7301 9.27529 13.5066 8.99999 13.5054L8.99784 14.0054ZM5.57683 13.4672L5.85218 13.0498H5.85218L5.57683 13.4672ZM4.68267 12.5843L4.26857 12.8645L4.26857 12.8645L4.68267 12.5843ZM4.68267 4.22863L4.26857 3.94841H4.26857L4.68267 4.22863ZM5.57683 3.34575L5.30148 2.9284V2.9284L5.57683 3.34575ZM15.6598 3.34575L15.9351 2.9284V2.9284L15.6598 3.34575ZM17.6001 8.40646C17.6001 7.29343 17.6007 6.42054 17.5292 5.72629C17.4568 5.02337 17.3062 4.44817 16.968 3.94841L16.1398 4.50886C16.3478 4.81622 16.4703 5.20635 16.5345 5.82878C16.5995 6.45988 16.6001 7.27235 16.6001 8.40646H17.6001ZM16.968 12.8645C17.3062 12.3648 17.4568 11.7895 17.5292 11.0866C17.6007 10.3924 17.6001 9.51949 17.6001 8.40646H16.6001C16.6001 9.54057 16.5995 10.353 16.5345 10.9841C16.4703 11.6066 16.3478 11.9967 16.1398 12.3041L16.968 12.8645ZM15.9351 13.8845C16.3435 13.6151 16.6946 13.2686 16.968 12.8645L16.1398 12.3041C15.9404 12.5988 15.6838 12.8523 15.3844 13.0498L15.9351 13.8845ZM12.2409 14.5054C13.1127 14.5016 13.8203 14.4853 14.4047 14.4055C14.9968 14.3247 15.4947 14.1751 15.9351 13.8845L15.3844 13.0498C15.1107 13.2304 14.7722 13.3461 14.2694 13.4147C13.7589 13.4844 13.1131 13.5016 12.2366 13.5054L12.2409 14.5054ZM12.7387 14.0065V14.0054H11.7387V14.0065H12.7387ZM11.9565 15.6706L12.6848 14.2323L11.7927 13.7806L11.0644 15.2188L11.9565 15.6706ZM9.28009 15.6706C9.83533 16.7671 11.4013 16.7671 11.9565 15.6706L11.0644 15.2188C10.8793 15.5843 10.3573 15.5843 10.1722 15.2188L9.28009 15.6706ZM8.55177 14.2323L9.28009 15.6706L10.1722 15.2188L9.44391 13.7806L8.55177 14.2323ZM8.49784 14.0054V14.0065H9.49784V14.0054H8.49784ZM5.30148 13.8845C5.74191 14.1751 6.23979 14.3247 6.83192 14.4055C7.41627 14.4853 8.12392 14.5016 8.99569 14.5054L8.99999 13.5054C8.12352 13.5016 7.47772 13.4844 6.96715 13.4147C6.46436 13.3461 6.12584 13.2304 5.85218 13.0498L5.30148 13.8845ZM4.26857 12.8645C4.54201 13.2686 4.89308 13.6151 5.30148 13.8845L5.85218 13.0498C5.55283 12.8523 5.29623 12.5988 5.09676 12.3041L4.26857 12.8645ZM3.63647 8.40646C3.63647 9.51949 3.63585 10.3924 3.70738 11.0866C3.7798 11.7895 3.93038 12.3648 4.26857 12.8645L5.09676 12.3041C4.88876 11.9967 4.76624 11.6066 4.70212 10.9841C4.63709 10.353 4.63647 9.54057 4.63647 8.40646H3.63647ZM4.26857 3.94841C3.93038 4.44817 3.7798 5.02337 3.70738 5.72629C3.63585 6.42054 3.63647 7.29343 3.63647 8.40646H4.63647C4.63647 7.27235 4.63709 6.45988 4.70212 5.82878C4.76624 5.20635 4.88876 4.81622 5.09676 4.50886L4.26857 3.94841ZM5.30148 2.9284C4.89308 3.19784 4.54201 3.54435 4.26857 3.94841L5.09676 4.50886C5.29623 4.2141 5.55283 3.9606 5.85218 3.76311L5.30148 2.9284ZM9.80807 2.30646C8.68041 2.30646 7.7975 2.30587 7.09557 2.37637C6.38559 2.44769 5.80568 2.59576 5.30148 2.9284L5.85218 3.76311C6.16541 3.55645 6.56319 3.43488 7.19551 3.37137C7.83586 3.30705 8.65986 3.30646 9.80807 3.30646V2.30646ZM11.4285 2.30646H9.80807V3.30646H11.4285V2.30646ZM15.9351 2.9284C15.4309 2.59576 14.851 2.44769 14.141 2.37637C13.4391 2.30587 12.5562 2.30646 11.4285 2.30646V3.30646C12.5767 3.30646 13.4007 3.30705 14.0411 3.37137C14.6734 3.43488 15.0712 3.55645 15.3844 3.76311L15.9351 2.9284ZM16.968 3.94841C16.6946 3.54435 16.3435 3.19784 15.9351 2.9284L15.3844 3.76311C15.6838 3.9606 15.9404 4.2141 16.1398 4.50886L16.968 3.94841Z" fill="#222222"/>
<ellipse cx="13.8591" cy="8.40645" rx="0.810227" ry="0.8" fill="#222222"/>
<ellipse cx="10.6183" cy="8.40645" rx="0.810227" ry="0.8" fill="#222222"/>
<ellipse cx="7.37737" cy="8.40645" rx="0.810227" ry="0.8" fill="#222222"/>
</svg>
