<svg width="33" height="32" viewBox="0 0 33 32" fill="none" xmlns="http://www.w3.org/2000/svg">
<ellipse cx="16.2045" cy="16" rx="16.2045" ry="16" fill="white"/>
<path d="M17.9261 12.5935C17.9261 13.6369 17.0677 14.4935 15.9954 14.4935C14.9231 14.4935 14.0647 13.6369 14.0647 12.5935C14.0647 11.5502 14.9231 10.6935 15.9954 10.6935C17.0677 10.6935 17.9261 11.5502 17.9261 12.5935Z" stroke="#222222" stroke-linecap="round"/>
<path d="M17.5087 11.4459C17.6587 11.1893 17.8831 10.9814 18.1542 10.8493C18.4254 10.7173 18.7307 10.6674 19.0312 10.7065C19.3316 10.7455 19.6129 10.8716 19.8395 11.0678C20.066 11.264 20.2278 11.5214 20.3052 11.8069C20.3827 12.0923 20.3727 12.3939 20.2765 12.6739C20.1802 12.9539 20.0016 13.2004 19.7624 13.3817C19.523 13.5631 19.2339 13.6707 18.9314 13.6903C18.6289 13.7099 18.3278 13.6404 18.0661 13.4912" stroke="#222222"/>
<path d="M14.4823 11.4459C14.3322 11.1893 14.1079 10.9814 13.8367 10.8493C13.5655 10.7173 13.2603 10.6674 12.9598 10.7065C12.6593 10.7455 12.3781 10.8716 12.1515 11.0678C11.9249 11.264 11.7632 11.5214 11.6857 11.8069C11.6083 12.0923 11.6183 12.3939 11.7145 12.6739C11.8108 12.9539 11.9893 13.2004 12.2286 13.3817C12.4679 13.5631 12.7571 13.6707 13.0595 13.6903C13.362 13.7099 13.6632 13.6404 13.9249 13.4912" stroke="#222222"/>
<path d="M15.9953 16.1935C19.1486 16.1935 20.0706 18.5969 20.3402 20.0024C20.4442 20.5448 20.0038 20.9935 19.4516 20.9935H12.5391C11.9868 20.9935 11.5464 20.5448 11.6505 20.0024C11.9201 18.5969 12.8421 16.1935 15.9953 16.1935Z" stroke="#222222" stroke-linecap="round"/>
<path d="M21.8493 18.3112L21.3685 18.4484V18.4484L21.8493 18.3112ZM16.8762 16.2623L16.5091 15.9228L15.8781 16.6052L16.7953 16.7557L16.8762 16.2623ZM20.1935 19.3936L19.7136 19.5341L19.8189 19.8936H20.1935V19.3936ZM18.8312 15.8936C19.5846 15.8936 20.1223 16.2342 20.5276 16.7261C20.9443 17.2319 21.2083 17.8869 21.3685 18.4484L22.3301 18.1741C22.1523 17.551 21.8406 16.7471 21.2994 16.0902C20.7468 15.4195 19.9444 14.8936 18.8312 14.8936V15.8936ZM17.2433 16.6017C17.6332 16.1801 18.1394 15.8936 18.8312 15.8936V14.8936C17.8162 14.8936 17.0559 15.3315 16.5091 15.9228L17.2433 16.6017ZM16.7953 16.7557C18.6095 17.0534 19.3775 18.3869 19.7136 19.5341L20.6733 19.253C20.2858 17.9303 19.316 16.1559 16.9572 15.7689L16.7953 16.7557ZM20.9657 18.8936H20.1935V19.8936H20.9657V18.8936ZM21.3685 18.4484C21.4017 18.5647 21.374 18.6652 21.3073 18.7447C21.2368 18.8288 21.1166 18.8936 20.9657 18.8936V19.8936C21.8321 19.8936 22.599 19.1164 22.3301 18.1741L21.3685 18.4484Z" fill="#222222"/>
<path d="M15.1145 16.2623L15.1955 16.7557L16.1126 16.6052L15.4817 15.9228L15.1145 16.2623ZM10.1415 18.3112L9.66065 18.1741V18.1741L10.1415 18.3112ZM11.7973 19.3936V19.8936H12.1718L12.2771 19.5341L11.7973 19.3936ZM13.1595 15.8936C13.8513 15.8936 14.3575 16.1801 14.7474 16.6017L15.4817 15.9228C14.9349 15.3315 14.1746 14.8936 13.1595 14.8936V15.8936ZM10.6223 18.4484C10.7825 17.8869 11.0465 17.2319 11.4632 16.7261C11.8684 16.2342 12.4062 15.8936 13.1595 15.8936V14.8936C12.0463 14.8936 11.244 15.4195 10.6914 16.0902C10.1502 16.7471 9.83843 17.551 9.66065 18.1741L10.6223 18.4484ZM11.025 18.8936C10.8742 18.8936 10.7539 18.8288 10.6834 18.7447C10.6168 18.6652 10.5891 18.5647 10.6223 18.4484L9.66065 18.1741C9.39178 19.1164 10.1587 19.8936 11.025 19.8936V18.8936ZM11.7973 18.8936H11.025V19.8936H11.7973V18.8936ZM12.2771 19.5341C12.6133 18.3869 13.3813 17.0534 15.1955 16.7557L15.0336 15.7689C12.6748 16.1559 11.705 17.9303 11.3175 19.253L12.2771 19.5341Z" fill="#222222"/>
</svg>
