<svg width="116" height="80" viewBox="0 0 116 80" fill="none" xmlns="http://www.w3.org/2000/svg">
<path fill-rule="evenodd" clip-rule="evenodd" d="M0 49C0 46.7909 1.79086 45 4 45H28C30.2091 45 32 46.7909 32 49V76C32 78.2091 30.2091 80 28 80H4C1.79086 80 0 78.2091 0 76V49ZM12.6364 66H10L14.017 54.3636H17.1875L21.1989 66H18.5625L17.701 63.3466H13.4996L12.6364 66ZM15.6477 57.0227L17.0774 61.4261H14.1243L15.5568 57.0227H15.6477ZM5 73C4.44772 73 4 73.4477 4 74C4 74.5523 4.44772 75 5 75H27C27.5523 75 28 74.5523 28 74C28 73.4477 27.5523 73 27 73H5Z" fill="white"/>
<path fill-rule="evenodd" clip-rule="evenodd" d="M42 4C42 1.79086 43.7909 0 46 0H70C72.2091 0 74 1.79086 74 4V31C74 33.2091 72.2091 35 70 35H46C43.7909 35 42 33.2091 42 31V4ZM42 49C42 46.7909 43.7909 45 46 45H70C72.2091 45 74 46.7909 74 49V76C74 78.2091 72.2091 80 70 80H46C43.7909 80 42 78.2091 42 76V49ZM59.6875 57.7103C59.642 57.2519 59.447 56.8959 59.1023 56.6421C58.7576 56.3883 58.2898 56.2614 57.6989 56.2614C57.2973 56.2614 56.9583 56.3182 56.6818 56.4319C56.4053 56.5417 56.1932 56.6951 56.0455 56.8921C55.9015 57.0891 55.8295 57.3125 55.8295 57.5625C55.822 57.7709 55.8655 57.9527 55.9602 58.108C56.0587 58.2633 56.1932 58.3978 56.3636 58.5114C56.5341 58.6213 56.7311 58.7178 56.9545 58.8012C57.178 58.8807 57.4167 58.9489 57.6705 59.0057L58.7159 59.2557C59.2235 59.3694 59.6894 59.5209 60.1136 59.7103C60.5379 59.8997 60.9053 60.1326 61.2159 60.4091C61.5265 60.6856 61.767 61.0114 61.9375 61.3864C62.1117 61.7614 62.2008 62.1913 62.2045 62.6762C62.2008 63.3883 62.0189 64.0057 61.6591 64.5285C61.303 65.0474 60.7879 65.4508 60.1136 65.7387C59.4432 66.0228 58.6345 66.1648 57.6875 66.1648C56.7481 66.1648 55.9299 66.0209 55.233 65.733C54.5398 65.4451 53.9981 65.019 53.608 64.4546C53.2216 63.8864 53.0189 63.1838 53 62.3466H55.3807C55.4072 62.7368 55.5189 63.0625 55.7159 63.3239C55.9167 63.5815 56.1837 63.7766 56.517 63.9091C56.8542 64.0379 57.2348 64.1023 57.6591 64.1023C58.0758 64.1023 58.4375 64.0417 58.7443 63.9205C59.0549 63.7993 59.2955 63.6307 59.4659 63.4148C59.6364 63.1989 59.7216 62.9508 59.7216 62.6705C59.7216 62.4091 59.6439 62.1894 59.4886 62.0114C59.3371 61.8334 59.1136 61.6819 58.8182 61.5569C58.5265 61.4319 58.1686 61.3182 57.7443 61.216L56.4773 60.8978C55.4962 60.6591 54.7216 60.286 54.1534 59.7785C53.5852 59.2709 53.303 58.5872 53.3068 57.7273C53.303 57.0228 53.4905 56.4072 53.8693 55.8807C54.2519 55.3542 54.7765 54.9432 55.4432 54.6478C56.1098 54.3523 56.8674 54.2046 57.7159 54.2046C58.5795 54.2046 59.3333 54.3523 59.9773 54.6478C60.625 54.9432 61.1288 55.3542 61.4886 55.8807C61.8485 56.4072 62.0341 57.0171 62.0455 57.7103H59.6875ZM47 73C46.4477 73 46 73.4477 46 74C46 74.5523 46.4477 75 47 75H69C69.5523 75 70 74.5523 70 74C70 73.4477 69.5523 73 69 73H47ZM50 9.36365L53.3295 21H55.7273L57.9375 13.3921H58.0284L60.2443 21H62.642L65.9716 9.36365H63.2841L61.358 17.4659H61.2557L59.1364 9.36365H56.8352L54.7102 17.4489H54.6136L52.6875 9.36365H50ZM46 29C46 28.4477 46.4477 28 47 28H69C69.5523 28 70 28.4477 70 29C70 29.5523 69.5523 30 69 30H47C46.4477 30 46 29.5523 46 29ZM88 45C85.7909 45 84 46.7909 84 49V76C84 78.2091 85.7909 80 88 80H112C114.209 80 116 78.2091 116 76V49C116 46.7909 114.209 45 112 45H88ZM99.125 66H95V54.3636H99.1591C100.33 54.3636 101.337 54.5966 102.182 55.0625C103.027 55.5246 103.676 56.1894 104.131 57.0568C104.589 57.9243 104.818 58.9621 104.818 60.1705C104.818 61.3826 104.589 62.4243 104.131 63.2955C103.676 64.1667 103.023 64.8352 102.17 65.3011C101.322 65.7671 100.307 66 99.125 66ZM97.4602 63.8921H99.0227C99.75 63.8921 100.362 63.7633 100.858 63.5057C101.358 63.2443 101.733 62.8409 101.983 62.2955C102.237 61.7462 102.364 61.0379 102.364 60.1705C102.364 59.3106 102.237 58.608 101.983 58.0625C101.733 57.5171 101.36 57.1155 100.864 56.858C100.367 56.6004 99.7557 56.4716 99.0284 56.4716H97.4602V63.8921ZM89 73C88.4477 73 88 73.4477 88 74C88 74.5523 88.4477 75 89 75H111C111.552 75 112 74.5523 112 74C112 73.4477 111.552 73 111 73H89Z" fill="white"/>
</svg>
